_________________________  Visit us at _________________________
  
http://p2pdl.com  ____________________________  http://p2pdl.com


Run Baby Run 2012 DVDRip x264 AAC ESubs - ViZNU

				
Genre: Comedy | Thriller 
The film which has news media as the backdrop, traces the relationship between two people and their
professional conflicts. 
Director:  Joshiy Milan Jaleel
Stars: Mohanlal, Amala Paul and Biju Menon.
Rated: N/a 
http://www.imdb.com/title/tt2357208/

General
Movie name                     : Run Baby Run 2012
Format                         : MPEG-4
Format profile                 : Base Media
File size                      : 697 MiB
Duration                       : 2h 20mn
Overall bit rate mode          : Variable
Overall bit rate               : 696 Kbps
Source                         : NTSC DVDR

Video
ID                             : 1
Format                         : AVC
Format/Info                    : Advanced Video Codec
Duration                       : 2h 20mn
Bit rate                       : 653 Kbps
Width                          : 608 pixels
Height                         : 256 pixels
Display aspect ratio           : 2.40:1
Frame rate mode                : Constant
Frame rate                     : 23.976 fps
Stream size                    : 654 MiB (94%)
Writing library                : x264 core 129 r2230

Audio
ID                             : 2
Format                         : AAC
Format/Info                    : Advanced Audio Codec
Format profile                 : HE-AACv2 / HE-AAC / LC
Duration                       : 2h 20mn
Bit rate mode                  : Variable
Bit rate                       : 39.8 Kbps
Maximum bit rate               : 49.4 Kbps
Channel(s)                     : 2 channels / 1 channel / 1 channel
Channel positions              : Front: L R / Front: C / Front: C
Sampling rate                  : 48.0 KHz / 48.0 KHz / 24.0 KHz
Stream size                    : 39.9 MiB (6%)
Language                       : Malayalam

Subtitle                       : Yes(English)

Screens:
 
http://www.shotpix.com/images/40687223109508419328.png 
http://www.shotpix.com/images/23327682307990858161.png 
http://www.shotpix.com/images/95623719346389622453.png 
http://www.shotpix.com/images/33012566430513777867.png 
http://www.shotpix.com/images/60354537167329978093.png 
http://www.shotpix.com/images/64932467482940198514.jpg


----------------------------------------------------------------------------------------------------


Recommend to you to use latest version of VLC player. Install K-Lite Codec Pack or shark007 codecs
in case of any kind of problem in playback (For non-VLC Media Player users). Alternatively, install
Core AVC codecs, the fastest decoder that there is coupled with Community Center Codec Pack and play
on Windows Media Player Classic. Check sample to be sure.
Enjoy!

Greets to: Vitamin_X, a2zRG, srkfan, MgB, Stumpie1971, Sheychi, StyLishSaLH and, Masta staff members at
ExtraTorrent, TPB,KAT, 1337x, PublicHD, Ahashare, BTScene, SilverTorrent, LimeTorrents, TorrentMafia,
P2PDL, and all others.

Encoder Notes: Looking For Early Access To Anything You Can Provide DVDScr, R5, DVDR, BluRay, Direct
Audio, Early Music Releases, Seedboxes, Dedicated Servers anything u can provide, Advance / Promo CDs/
DVDs. If You Got anything to offer contact me at "prg@hush.com".

Facebook Fan Page: www . facebook . com / p2pdl